<svg xmlns="http://www.w3.org/2000/svg" viewBox="0 0 42 42"><defs><style>.cls-1{fill:none;}.cls-2{fill:#aeb9e1;}</style></defs><title>no ver </title><g id="Capa_2" data-name="Capa 2"><g id="Capa_1-2" data-name="Capa 1"><rect class="cls-1" width="42" height="42"/><path class="cls-2" d="M40,21.72a1.18,1.18,0,0,0-.11-1.53c-5.87-5.93-12.13-8.93-18.65-9h-.78a22.71,22.71,0,0,0-6,1L7.08,5.1A1.18,1.18,0,0,0,5.26,6.58h0a1,1,0,0,0,.18.23L12,13.11h0l11.9,11.47h0l2.83,2.73h0L29.51,30h0l7.13,6.88a1.19,1.19,0,0,0,.82.33,1.21,1.21,0,0,0,.86-.36,1.2,1.2,0,0,0,0-1.68L31.76,28.9A28.45,28.45,0,0,0,40,21.72ZM28.27,25.54l-3.05-2.95a4,4,0,0,0,.16-1.11A4.25,4.25,0,0,0,21,17.34a4.44,4.44,0,0,0-1.11.13l-3-2.93a8.87,8.87,0,0,1,3.95-1h.37a8.71,8.71,0,0,1,5.87,2.36,7.62,7.62,0,0,1,2.44,5.59A7.44,7.44,0,0,1,28.27,25.54Zm1.82,1.54A9.79,9.79,0,0,0,30,15.74a29.93,29.93,0,0,1,7.43,5.37A26.77,26.77,0,0,1,30.09,27.08Z"/><path class="cls-2" d="M23.71,29a8.78,8.78,0,0,1-2.59.42c-.43,0-.85,0-1.28-.08A8.64,8.64,0,0,1,14.93,27a7.59,7.59,0,0,1-2.43-5.58,7.29,7.29,0,0,1,.55-2.75l-1.81-1.75a9.82,9.82,0,0,0,.22,9.47,34.44,34.44,0,0,1-6.87-5.55,29.41,29.41,0,0,1,6.09-4.46L8.89,14.65a29.32,29.32,0,0,0-6.84,5.4,1.17,1.17,0,0,0,0,1.59c5.68,6.08,11.55,9.43,17.5,10l.61.06h.07c.23,0,.46,0,.69,0h.49c.39,0,.78,0,1.16,0A19.12,19.12,0,0,0,26,31.19Z"/></g></g></svg>