<svg xmlns="http://www.w3.org/2000/svg" width="45.754" height="61.259" viewBox="0 0 45.754 61.259">
  <path id="Trazado_12" data-name="Trazado 12" d="M2.58,16a3.12,3.12,0,0,0,.82,2.33,5.09,5.09,0,0,0,1.11.87c5.18,3,7.87,1.4,17.42,1.4C33.16,20.59,41.56,26,41.56,36c0,8.3-2.27,19.76-15.38,19.76L9,55.39a3.57,3.57,0,0,1-3.51-3.64,2.09,2.09,0,0,1,0-.25c.36-4.23.92-10.92,1-14.44.27-6.24-.58-10.76-4.39-13L0,57.35a3.69,3.69,0,0,0,3.7,3.92H42.05a3.69,3.69,0,0,0,3.69-3.92L43.17,16a3.7,3.7,0,0,0-3.69-3.47h-2.8a13.86,13.86,0,0,0-27.59,0H6.27A3.7,3.7,0,0,0,2.58,16ZM24.21,3.58a10.36,10.36,0,0,1,8.93,8.94H12.62A10.36,10.36,0,0,1,24.21,3.58Z" transform="translate(0.007 -0.011)" fill="#fff"/>
  <path id="Trazado_11" data-name="Trazado 11" d="M27.38,42.91A4.85,4.85,0,0,1,23,45.09a5.63,5.63,0,0,1-3.93-1.45,5.55,5.55,0,0,1-1.78-3.86H32.61a12.569,12.569,0,0,0,.14-2,10.48,10.48,0,0,0-1.23-5.14,8.78,8.78,0,0,0-3.46-3.48A10.28,10.28,0,0,0,23,27.88a10.51,10.51,0,0,0-5.22,1.28,8.8,8.8,0,0,0-3.53,3.62A11.32,11.32,0,0,0,13,38.22a11.13,11.13,0,0,0,1.29,5.44,9.23,9.23,0,0,0,3.56,3.64A10.28,10.28,0,0,0,23,48.59a9.67,9.67,0,0,0,5.92-1.77A9.06,9.06,0,0,0,32,42.91ZM19.14,32.74a5.34,5.34,0,0,1,3.68-1.36,5.87,5.87,0,0,1,4,1.38,4.72,4.72,0,0,1,1.63,3.67H17.33a5.71,5.71,0,0,1,1.81-3.69Z" transform="translate(0.003 0.122)" fill="#fff"/>
</svg>
