<svg xmlns="http://www.w3.org/2000/svg" viewBox="0 0 168.92 68.83"><defs><style>.cls-1{fill:#fff;}</style></defs><title>logo </title><g id="Capa_2" data-name="Capa 2"><g id="Capa_1-2" data-name="Capa 1"><path class="cls-1" d="M73.86,13.88a12.36,12.36,0,0,0-5.69-1.24H61.53V33h6.64a12.61,12.61,0,0,0,5.69-1.22,8.73,8.73,0,0,0,3.77-3.49A10.49,10.49,0,0,0,79,22.87a10.7,10.7,0,0,0-1.34-5.42A8.85,8.85,0,0,0,73.86,13.88Zm-.22,14.44a7.37,7.37,0,0,1-5.47,1.93H64.86V15.36h3.31a7.2,7.2,0,0,1,5.47,2,7.63,7.63,0,0,1,1.9,5.52A7.42,7.42,0,0,1,73.64,28.32Z"/><path class="cls-1" d="M93.71,17.61a9,9,0,0,0-8.37,0,7.46,7.46,0,0,0-3,2.92,8.7,8.7,0,0,0-1.08,4.36,8.87,8.87,0,0,0,1,4.38,7.47,7.47,0,0,0,2.9,2.92,8.24,8.24,0,0,0,4.12,1,8.77,8.77,0,0,0,4.23-1,7.78,7.78,0,0,0,3-2.94,8.49,8.49,0,0,0,1.11-4.36,8.61,8.61,0,0,0-1.09-4.36A7.46,7.46,0,0,0,93.71,17.61Zm-.09,10.27a4.69,4.69,0,0,1-1.83,1.84,4.93,4.93,0,0,1-2.41.61A4.41,4.41,0,0,1,86,28.92a5.66,5.66,0,0,1-1.33-4,6.27,6.27,0,0,1,.64-3,4.43,4.43,0,0,1,1.74-1.82,4.81,4.81,0,0,1,2.39-.62,4.88,4.88,0,0,1,2.4.62,4.59,4.59,0,0,1,1.78,1.82,6,6,0,0,1,.67,3A5.93,5.93,0,0,1,93.62,27.88Z"/><path class="cls-1" d="M115.07,19.71a5.72,5.72,0,0,0-2.36-2.34,7.3,7.3,0,0,0-3.41-.79,6.66,6.66,0,0,0-2.7.56,5.59,5.59,0,0,0-2.1,1.55V16.85h-3.33V33h3.33V24a4.63,4.63,0,0,1,1.1-3.32,3.9,3.9,0,0,1,3-1.16,3.84,3.84,0,0,1,3,1.16A4.63,4.63,0,0,1,112.61,24v9h3.3V23.46A7.81,7.81,0,0,0,115.07,19.71Z"/><polygon class="cls-1" points="61.53 61.17 72.76 61.17 72.76 58.45 64.86 58.45 64.86 52.22 71.89 52.22 71.89 49.5 64.86 49.5 64.86 43.53 72.76 43.53 72.76 40.81 61.53 40.81 61.53 61.17"/><polygon class="cls-1" points="85.61 45.05 82.33 50.52 78.85 45.05 75.08 45.05 80.28 53.24 75.08 61.17 78.56 61.17 81.83 55.7 85.31 61.17 89.09 61.17 83.88 53.01 89.09 45.05 85.61 45.05"/><path class="cls-1" d="M104.49,45.82a7.38,7.38,0,0,0-3.85-1,7,7,0,0,0-3.3.76A6.6,6.6,0,0,0,95,47.42V45.05H91.69V68.83H95v-10a7.3,7.3,0,0,0,2.34,1.86,7.06,7.06,0,0,0,3.27.74,7.14,7.14,0,0,0,3.85-1.07,7.46,7.46,0,0,0,2.74-3,9.34,9.34,0,0,0,1-4.34,9,9,0,0,0-1-4.3A7.42,7.42,0,0,0,104.49,45.82ZM104.14,56a4.87,4.87,0,0,1-1.81,1.92,4.72,4.72,0,0,1-4.8,0A4.81,4.81,0,0,1,95.71,56a6.52,6.52,0,0,1,0-5.8,4.82,4.82,0,0,1,1.82-1.87,4.71,4.71,0,0,1,2.38-.65,4.91,4.91,0,0,1,2.42.63,4.78,4.78,0,0,1,1.81,1.84,5.75,5.75,0,0,1,.69,2.89A6,6,0,0,1,104.14,56Z"/><path class="cls-1" d="M115,48.08v-3h-3.34V61.17H115v-7.8a4.71,4.71,0,0,1,1-3.45,4.07,4.07,0,0,1,3-1h.84V45.47a5.74,5.74,0,0,0-2.88.69A5.18,5.18,0,0,0,115,48.08Z"/><path class="cls-1" d="M150.39,52.76a21.55,21.55,0,0,0-2.88-.95c-.88-.26-1.54-.47-2-.63a3.41,3.41,0,0,1-1.14-.69,1.39,1.39,0,0,1-.47-1.08,1.53,1.53,0,0,1,.7-1.32,3.48,3.48,0,0,1,2-.49,3.29,3.29,0,0,1,2.14.64,2.35,2.35,0,0,1,.87,1.72H153a5,5,0,0,0-1.8-3.78,6.71,6.71,0,0,0-4.43-1.39,8.1,8.1,0,0,0-3.26.61,5,5,0,0,0-2.18,1.68,4,4,0,0,0-.76,2.36,3.72,3.72,0,0,0,.83,2.54,5.16,5.16,0,0,0,2,1.44,26.67,26.67,0,0,0,3,1,15.08,15.08,0,0,1,2.73,1,1.42,1.42,0,0,1,.87,1.34,1.63,1.63,0,0,1-.78,1.39,3.78,3.78,0,0,1-2.18.54,3.62,3.62,0,0,1-2.24-.68,2.38,2.38,0,0,1-1-1.72h-3.45a4.64,4.64,0,0,0,.94,2.65,5.89,5.89,0,0,0,2.38,1.87,8.11,8.11,0,0,0,3.41.69,8,8,0,0,0,3.26-.61,5,5,0,0,0,2.15-1.7,4.15,4.15,0,0,0,.76-2.46,3.72,3.72,0,0,0-.85-2.48A5.22,5.22,0,0,0,150.39,52.76Z"/><path class="cls-1" d="M168.07,54.18a5.22,5.22,0,0,0-1.94-1.42,21.55,21.55,0,0,0-2.88-.95c-.88-.26-1.54-.47-2-.63a3.41,3.41,0,0,1-1.14-.69,1.39,1.39,0,0,1-.47-1.08,1.53,1.53,0,0,1,.7-1.32,3.48,3.48,0,0,1,2-.49,3.24,3.24,0,0,1,2.13.64,2.36,2.36,0,0,1,.88,1.72h3.34a5,5,0,0,0-1.8-3.78,6.71,6.71,0,0,0-4.43-1.39,8.19,8.19,0,0,0-3.27.61A5.13,5.13,0,0,0,157,47.08a4,4,0,0,0-.76,2.36,3.72,3.72,0,0,0,.84,2.54,5.16,5.16,0,0,0,2,1.44,26.67,26.67,0,0,0,3,1,15.38,15.38,0,0,1,2.73,1,1.42,1.42,0,0,1,.87,1.34,1.63,1.63,0,0,1-.78,1.39,3.78,3.78,0,0,1-2.18.54,3.62,3.62,0,0,1-2.24-.68,2.38,2.38,0,0,1-1-1.72H156a4.64,4.64,0,0,0,.94,2.65,5.89,5.89,0,0,0,2.38,1.87,8.11,8.11,0,0,0,3.41.69,8,8,0,0,0,3.26-.61,5.06,5.06,0,0,0,2.15-1.7,4.15,4.15,0,0,0,.76-2.46A3.72,3.72,0,0,0,168.07,54.18Z"/><path class="cls-1" d="M133.45,56.87a3.92,3.92,0,0,1-3.52,1.75,4.53,4.53,0,0,1-3.16-1.17,4.47,4.47,0,0,1-1.44-3.1h12.32a10.08,10.08,0,0,0,.12-1.64,8.45,8.45,0,0,0-1-4.14A7,7,0,0,0,134,45.78a8.22,8.22,0,0,0-4.06-1,8.48,8.48,0,0,0-4.2,1,7,7,0,0,0-2.84,2.91,9.18,9.18,0,0,0-1,4.37,9,9,0,0,0,1,4.38,7.33,7.33,0,0,0,2.87,2.92,8.14,8.14,0,0,0,4.14,1A7.74,7.74,0,0,0,134.68,60a7.18,7.18,0,0,0,2.46-3.14Zm-6.62-8.18a4.26,4.26,0,0,1,3-1.09A4.66,4.66,0,0,1,133,48.71a3.77,3.77,0,0,1,1.31,2.95h-8.92A4.6,4.6,0,0,1,126.83,48.69Z"/><path class="cls-1" d="M27.38,42.91A4.85,4.85,0,0,1,23,45.09a5.63,5.63,0,0,1-3.93-1.45,5.55,5.55,0,0,1-1.78-3.86H32.61a12.57,12.57,0,0,0,.14-2,10.48,10.48,0,0,0-1.23-5.14,8.78,8.78,0,0,0-3.46-3.48A10.28,10.28,0,0,0,23,27.88a10.51,10.51,0,0,0-5.22,1.28,8.8,8.8,0,0,0-3.53,3.62A11.32,11.32,0,0,0,13,38.22a11.13,11.13,0,0,0,1.29,5.44,9.23,9.23,0,0,0,3.56,3.64A10.28,10.28,0,0,0,23,48.59a9.67,9.67,0,0,0,5.92-1.77A9.06,9.06,0,0,0,32,42.91ZM19.14,32.74a5.34,5.34,0,0,1,3.68-1.36,5.87,5.87,0,0,1,4,1.38,4.72,4.72,0,0,1,1.63,3.67H17.33A5.71,5.71,0,0,1,19.14,32.74Z"/><path class="cls-1" d="M2.58,16a3.12,3.12,0,0,0,.82,2.33,5.09,5.09,0,0,0,1.11.87c5.18,3,7.87,1.4,17.42,1.4C33.16,20.59,41.56,26,41.56,36c0,8.3-2.27,19.76-15.38,19.76L9,55.39a3.57,3.57,0,0,1-3.51-3.64,2.09,2.09,0,0,1,0-.25c.36-4.23.92-10.92,1-14.44.27-6.24-.58-10.76-4.39-13L0,57.35A3.69,3.69,0,0,0,3.7,61.27H42.05a3.69,3.69,0,0,0,3.69-3.92L43.17,16a3.7,3.7,0,0,0-3.69-3.47h-2.8a13.86,13.86,0,0,0-27.59,0H6.27A3.7,3.7,0,0,0,2.58,16ZM24.21,3.58a10.36,10.36,0,0,1,8.93,8.94H12.62A10.36,10.36,0,0,1,24.21,3.58Z"/></g></g></svg>