<svg xmlns="http://www.w3.org/2000/svg" viewBox="0 0 42 42"><defs><style>.cls-1{fill:none;}.cls-2{fill:#757575;}</style></defs><title>ver </title><g id="Capa_2" data-name="Capa 2"><g id="Capa_1-2" data-name="Capa 1"><rect class="cls-1" width="42" height="42"/><path class="cls-2" d="M39.91,19.72c-5.87-5.92-12.16-8.93-18.66-9h-.77C9.74,11,2.36,19.23,2.05,19.58a1.18,1.18,0,0,0,0,1.6c5.68,6.08,11.55,9.42,17.5,10l.61,0h.07c.23,0,.46,0,.69,0h.49c.39,0,.78,0,1.16,0,10.48-.63,17.15-9.61,17.43-10A1.2,1.2,0,0,0,39.91,19.72ZM21.13,28.91c-.45,0-.89,0-1.33-.09a8.64,8.64,0,0,1-4.87-2.28A7.61,7.61,0,0,1,12.5,21c0-4.33,3.8-7.84,8.44-7.86h.11a8.7,8.7,0,0,1,6,2.37A7.6,7.6,0,0,1,29.5,21C29.48,25.35,25.74,28.84,21.13,28.91ZM12,15.27a9.84,9.84,0,0,0-.52,10.65,34.61,34.61,0,0,1-6.86-5.54A29,29,0,0,1,12,15.27ZM30.09,26.62A9.79,9.79,0,0,0,30,15.28a30.19,30.19,0,0,1,7.43,5.37A27,27,0,0,1,30.09,26.62Z"/><path class="cls-2" d="M21,16.88A4.26,4.26,0,0,0,16.61,21,4.26,4.26,0,0,0,21,25.12,4.27,4.27,0,0,0,25.39,21,4.27,4.27,0,0,0,21,16.88Z"/></g></g></svg>