<svg xmlns="http://www.w3.org/2000/svg" viewBox="0 0 42 42"><defs><style>.cls-1{fill:none;}.cls-2{fill:#f4492a;}</style></defs><title>contraseña </title><g id="Capa_2" data-name="Capa 2"><g id="Capa_1-2" data-name="Capa 1"><rect class="cls-1" width="42" height="42"/><path class="cls-2" d="M29.88,16.56H29.5V11.93a8.09,8.09,0,0,0-8.09-8.08h-.82a8.09,8.09,0,0,0-8.09,8.08v4.63h-.38a4.31,4.31,0,0,0-4.3,4.3v13a4.3,4.3,0,0,0,4.3,4.3H29.88a4.3,4.3,0,0,0,4.3-4.3v-13A4.31,4.31,0,0,0,29.88,16.56ZM15,11.93a5.58,5.58,0,0,1,5.57-5.56h.82A5.58,5.58,0,0,1,27,11.93v4.31H15ZM31.65,33.85a1.78,1.78,0,0,1-1.77,1.78H12.12a1.78,1.78,0,0,1-1.77-1.78v-13a1.77,1.77,0,0,1,1.77-1.77H29.88a1.77,1.77,0,0,1,1.77,1.77Z"/></g></g></svg>