<svg xmlns="http://www.w3.org/2000/svg" viewBox="0 0 27 26.84"><defs><style>.cls-1{fill:none;opacity:0;}.cls-2{fill:#f4492a;}</style></defs><g id="Capa_2" data-name="Capa 2"><g id="Capa_1-2" data-name="Capa 1"><rect class="cls-1" width="27" height="26.84"/><path class="cls-2" d="M13.5,12A5.28,5.28,0,1,0,8.22,6.7,5.29,5.29,0,0,0,13.5,12Zm0-9.34A4.07,4.07,0,1,1,9.43,6.7,4.07,4.07,0,0,1,13.5,2.63Z"/><path class="cls-2" d="M21.33,23.1a27.72,27.72,0,0,1-15.66-.05.6.6,0,1,0-.35,1.15,28.5,28.5,0,0,0,8.27,1.22,28.55,28.55,0,0,0,8.08-1.16.6.6,0,1,0-.34-1.16Z"/><path class="cls-2" d="M25.47,24.13s0,0,0-.06l0-.55c-.12-2.1-.23-3.9-1.49-5.35-1.6-1.83-4.74-3.18-8.38-3.6a.58.58,0,0,0-.58.28l-.52.84a1.15,1.15,0,0,1-2,0l-.5-.81a.63.63,0,0,0-.58-.28c-2.77.32-6.41,1.45-8.34,3.67-1.23,1.43-1.36,3.16-1.51,5.16,0,.22,0,.44-.05.67a.6.6,0,1,0,1.2.09c0-.23,0-.45,0-.67C2.92,21.66,3,20.19,4,19.07c1.34-1.55,4.13-2.8,7.18-3.22l.3.48a2.38,2.38,0,0,0,2,1.11h0a2.36,2.36,0,0,0,2-1.12l.31-.5c2.53.35,5.65,1.34,7.23,3.15,1,1.13,1.08,2.67,1.19,4.62l0,.59a.28.28,0,0,0,0,.09v0a.6.6,0,0,0,.6.52H25A.61.61,0,0,0,25.47,24.13Z"/></g></g></svg>